<svg xmlns="http://www.w3.org/2000/svg" enable-background="new 0 0 24 24" viewBox="0 0 24 24" id="glassdoor">
  <path fill="#29B14F" d="M16.502,0.75h-0.001H6.749c-1.795,0-3.248,1.471-3.249,3.282V17.13c0,0.065,0.052,0.12,0.119,0.12h3.544c0.066,0,0.119-0.055,0.119-0.12V4.034h12.47C19.751,2.22,18.296,0.75,16.502,0.75z"></path>
  <path fill="#29B14F" d="M7.374,23.25h0.001h9.752c1.795,0,3.248-1.471,3.249-3.282V6.87c0-0.065-0.052-0.12-0.119-0.12h-3.544c-0.066,0-0.119,0.055-0.119,0.12v13.096H4.125C4.125,21.78,5.58,23.25,7.374,23.25z"></path>
  <path d="M17.05,24H7.449c-2.141,0-3.948-1.946-3.948-4.25c0-0.414,0.336-0.75,0.75-0.75h11.75V6.871c0-0.48,0.388-0.871,0.864-0.871h3.27C20.612,6,21,6.39,21,6.87v13.095C21,22.19,19.228,24,17.05,24z M5.102,20.5c0.307,1.127,1.272,2,2.348,2h9.601c1.351,0,2.45-1.137,2.45-2.535V7.5h-1.999v12.25c0,0.414-0.336,0.75-0.75,0.75H5.102z M20.135,7.5h0.01H20.135z"></path>
  <path d="M7.165,18H3.866C3.389,18,3,17.61,3,17.13V4.035C3.001,1.81,4.772,0,6.949,0h9.603c2.104,0,3.949,2.002,3.949,4.285c0,0.414-0.336,0.75-0.75,0.75H8.031V17.13C8.031,17.61,7.643,18,7.165,18z M4.5,16.5h2.031V4.285c0-0.414,0.336-0.75,0.75-0.75h11.617C18.587,2.402,17.608,1.5,16.552,1.5H6.949C5.6,1.5,4.501,2.637,4.5,4.036V16.5z"></path>
</svg>
